<?xml version="1.0" standalone="no"?>
<!DOCTYPE svg PUBLIC "-//W3C//DTD SVG 20010904//EN"
 "http://www.w3.org/TR/2001/REC-SVG-20010904/DTD/svg10.dtd">
<svg version="1.0" xmlns="http://www.w3.org/2000/svg"
 width="900.000000pt" height="900.000000pt" viewBox="0 0 900.000000 900.000000"
 preserveAspectRatio="xMidYMid meet">
<metadata>
Created by potrace 1.14, written by Peter Selinger 2001-2017
</metadata>
<g transform="translate(0.000000,900.000000) scale(0.100000,-0.100000)"
fill="#000000" stroke="none">
<path d="M7763 8890 c-12 -5 -133 -120 -267 -255 -135 -135 -250 -245 -255
-245 -13 0 -654 -641 -648 -647 3 -2 -1313 -1322 -2924 -2931 l-2929 -2927
-95 -255 c-52 -140 -103 -277 -114 -305 -11 -27 -49 -131 -86 -230 -36 -99
-72 -196 -80 -215 -8 -19 -44 -116 -80 -215 -36 -99 -70 -189 -75 -200 -5 -11
-38 -99 -74 -195 -36 -96 -68 -183 -71 -192 -5 -13 -2 -18 12 -18 10 0 23 4
28 9 6 5 32 16 59 26 59 19 392 142 421 154 20 9 53 21 58 20 1 0 35 14 75 30
39 16 72 27 72 24 0 -3 6 -1 13 4 6 5 35 18 62 28 28 9 77 28 110 40 62 24
307 116 360 135 17 6 31 11 32 11 7 -2 120 43 131 52 6 5 12 7 12 4 0 -3 25 5
55 19 31 13 60 24 66 24 6 0 25 6 42 14 18 8 73 29 122 47 l90 33 2927 2926
c1610 1608 2933 2927 2940 2929 18 5 647 633 645 643 -1 4 112 121 251 261
242 242 253 255 254 293 1 21 -1 55 -5 74 -4 19 -7 38 -8 42 0 10 -74 154
-100 198 -20 33 -55 79 -131 175 -67 83 -356 363 -440 425 -165 123 -281 182
-383 193 -27 3 -60 2 -72 -3z"/>
</g>
</svg>
